/* XPM */
static const char * Antenna_xpm[] = {
"32 32 181 2",
"  	c None",
". 	c #585644",
"X 	c #66624F",
"o 	c #6E6E59",
"O 	c #7A7E6C",
"+ 	c #4A4A39",
"@ 	c #6A6A4C",
"# 	c #767260",
"$ 	c #868A78",
"% 	c #70725C",
"& 	c #726E64",
"* 	c #464238",
"= 	c #524E3C",
"- 	c #5E5A44",
"; 	c #68664C",
": 	c #726A5C",
"> 	c #6E7A5C",
", 	c #8E8E84",
"< 	c #6A6E67",
"1 	c #5E665C",
"2 	c #464638",
"3 	c #4E4E39",
"4 	c #726E5C",
"5 	c #808274",
"6 	c #969A84",
"7 	c #666A67",
"8 	c #5E5A4E",
"9 	c #525644",
"0 	c #465A54",
"q 	c #465244",
"w 	c #565653",
"e 	c #3E4237",
"r 	c #525240",
"t 	c #7A7668",
"y 	c #8A9280",
"u 	c #9EA68C",
"i 	c #4A4642",
"p 	c #424E49",
"a 	c #5E524A",
"s 	c #565246",
"d 	c #5A5A40",
"f 	c #696A54",
"g 	c #7A7A6E",
"h 	c #8E9A84",
"j 	c #9E968C",
"k 	c #363E34",
"l 	c #5E5E4C",
"z 	c #4A4239",
"x 	c #625E4A",
"c 	c #666654",
"v 	c #4E4A3B",
"b 	c #6A6254",
"n 	c #7E7E6F",
"m 	c #8A8674",
"M 	c #32261C",
"N 	c #7E8284",
"B 	c #4E523C",
"V 	c #4A4E3C",
"C 	c #7A725C",
"Z 	c #625A47",
"A 	c #727664",
"S 	c #22261C",
"D 	c #7E7A74",
"F 	c #665A44",
"G 	c #666634",
"H 	c #827E6C",
"J 	c #3E3E36",
"K 	c #3E5654",
"L 	c #5A5248",
"P 	c #4E463C",
"I 	c #60624C",
"U 	c #3A362C",
"Y 	c #2B2E1C",
"T 	c #2A3224",
"R 	c #162A14",
"E 	c #7A8E84",
"W 	c #5E625C",
"Q 	c #5E5644",
"! 	c #443A34",
"~ 	c #3E362F",
"^ 	c #2E322C",
"/ 	c #3A3A32",
"( 	c #16160C",
") 	c #4A5658",
"_ 	c #463E30",
"` 	c #423E34",
"' 	c #424237",
"] 	c #2E321C",
"[ 	c #323628",
"{ 	c #363A30",
"} 	c #5E6A64",
"| 	c #767A74",
" .	c #665E4C",
"..	c #8E8A7C",
"X.	c #9E9A7C",
"o.	c #3A2E2C",
"O.	c #364230",
"+.	c #5A4E4F",
"@.	c #322E2C",
"#.	c #1E1E18",
"$.	c #4E4E48",
"%.	c #6A767C",
"&.	c #6E6A59",
"*.	c #9EA294",
"=.	c #A2A28C",
"-.	c #221E14",
";.	c #5A564F",
":.	c #262A1C",
">.	c #26221C",
",.	c #161A0C",
"<.	c #86969C",
"1.	c #605E5C",
"2.	c #6A665C",
"3.	c #363628",
"4.	c #32361C",
"5.	c #363227",
"6.	c #56625C",
"7.	c #808E90",
"8.	c #5A5E50",
"9.	c #76766C",
"0.	c #828674",
"q.	c #564A44",
"w.	c #3E3A32",
"e.	c #42524C",
"r.	c #505A54",
"t.	c #766E6C",
"y.	c #929E8C",
"u.	c #2A261C",
"i.	c #4E4234",
"p.	c #52423C",
"a.	c #524A44",
"s.	c #524E46",
"d.	c #2B2E24",
"f.	c #1E2614",
"g.	c #728284",
"h.	c #7E7E7C",
"j.	c #828A7C",
"k.	c #5A5A54",
"l.	c #3C4A44",
"z.	c #606664",
"x.	c #322A24",
"c.	c #1A1E10",
"v.	c #3A4644",
"b.	c #82828C",
"n.	c #8A9684",
"m.	c #7A827F",
"M.	c #86927C",
"N.	c #9A9A8C",
"B.	c #999A9C",
"V.	c #425A4C",
"C.	c #5E6E6C",
"Z.	c #627274",
"A.	c #909294",
"S.	c #9EA2A0",
"D.	c #869290",
"F.	c #6A6A68",
"G.	c #4D4A44",
"H.	c #464A41",
"J.	c #768284",
"K.	c #A2A6A8",
"L.	c #363634",
"P.	c #2E3A34",
"I.	c #8A9A94",
"U.	c #52524C",
"Y.	c #666664",
"T.	c #433E3C",
"R.	c #B6BABC",
"E.	c #465254",
"W.	c #2E362C",
"Q.	c #AAAAAC",
"!.	c #5A4A54",
"~.	c #323227",
"^.	c #727E79",
"/.	c #6F7266",
"(.	c #66565C",
").	c #808A8C",
"_.	c #767A84",
"`.	c #423634",
"'.	c #2A2A1C",
"].	c #26261C",
"[.	c #42463C",
"                                                                ",
"                                  . X o O                       ",
"                              + . X @ # $ %                     ",
"                          & * = - ; : > , <                     ",
"                        1 2 3 = X @ 4 5 6 7                     ",
"            8 9 0 q 7 w e r . 8 @ o t y u i                     ",
"          p a *     1 - - s 3 r d f g h j k                     ",
"          p 9 l     z s r x x l ; l l > c p                     ",
"            p     * v 3 2 = - b . 4 n m M q                     ",
"            p N B + V C . s Z A : ; 6 # S                       ",
"              D e 3 v F v a G H x r b 2 J     K                 ",
"              = L P = s d F I F X . z U v Y T R E               ",
"            W v l i = . @ b l Q ! @ ~ Y ^ / ( ) E               ",
"            J 3 Q L r X # m C _ ` U ' ] [ { 9 } |               ",
"          p 2 s Z  .@ I # ..X.t o.O.+.@.S #.c $.%.              ",
"          + L x ; &.% g @ *.=. .-.Y ;.:.>.,.} <.0               ",
"          p 1.o & 2. .% *.H : 3.] 4.c 5.5.2 6.7.8.c             ",
"        p p : % 9.H g C 0.a Y b q.q.z / w.P P e e.r.            ",
"        p f t.n 5 *.y.*.b M u.i.p.P a.s.2.[ d.f.g.q             ",
"        h.& 0.j.*.*.j k.e p 3.l.z.V x.:.d.>.c.v.W b.n.          ",
"        p m.M.h N.% p m.    B.` | $.i.a w.~ f.V.C.Z.A.          ",
"          S.$ g & D.          i F.G.L G.H.G.:.J.K.1.            ",
"                              k.b * z 1.+.w.L.P.I.W             ",
"                              U.Y.1./ L.H.v.z T.L.<             ",
"                            R.E.&.L w = T.W.w.T.@.              ",
"                            Q.< t.` s z.!.k ! ~.^.              ",
"                            K.1 /.P k.(.(.3.{ { m.              ",
"                              ).7 ;.~ ~.' ~ a i W               ",
"                              _.$.s.' J +.`.o.'.].].            ",
"                            A.).8.6.z.k.T.P w.'.+ ,.t           ",
"                            ' e { i [.z ! o.w.#.'.~.t           ",
"                                                                "};
