/* XPM */
static const char * Database_xpm[] = {
"36 36 200 3",
"   	c None",
".  	c #ABAABF",
"X  	c #92929C",
"o  	c #A19EAD",
"O  	c #A0A6B8",
"+  	c #8592B7",
"@  	c #9896B4",
"#  	c #8D92B9",
"$  	c #728DC0",
"%  	c #8B96B6",
"&  	c #7E92C4",
"*  	c #A696BC",
"=  	c #FCB6B0",
"-  	c #D5B5B4",
";  	c #8C9ABD",
":  	c #96AACC",
">  	c #D6DADF",
",  	c #849ED0",
"<  	c #B6B6BC",
"1  	c #96A2C3",
"2  	c #969EB4",
"3  	c #6686BF",
"4  	c #C6AAB4",
"5  	c #ECE6EE",
"6  	c #FDF6F9",
"7  	c white",
"8  	c #BEC4D8",
"9  	c #8596BC",
"0  	c #979EBC",
"q  	c #D6DBEF",
"w  	c #F6F2F6",
"e  	c #F4EEF4",
"r  	c #A6AEC4",
"t  	c #CAD6EC",
"y  	c #FCF2F4",
"u  	c #6B86C1",
"i  	c #ADA6AC",
"p  	c #8D9EC4",
"a  	c #6E8EC4",
"s  	c #C7BEC1",
"d  	c #88A2D0",
"f  	c #C8C2C2",
"g  	c #E2DDE4",
"h  	c #AAB2CC",
"j  	c #727E94",
"k  	c #768BBC",
"l  	c #CFC4CC",
"z  	c #C6CADF",
"x  	c #A78B9C",
"c  	c #FEBBB7",
"v  	c #BAC6E4",
"b  	c #567698",
"n  	c #7792C9",
"m  	c #DCDADF",
"M  	c #CACEE4",
"N  	c #E8EAF4",
"B  	c #8A8EBC",
"V  	c #DEBEC4",
"C  	c #D5CDD2",
"Z  	c #E9EEFC",
"A  	c #B69EA4",
"S  	c #687EA4",
"D  	c #C9BECF",
"F  	c #8EA3CF",
"G  	c #7F96C9",
"H  	c #9696A0",
"J  	c #CECEDC",
"K  	c #EEEBEE",
"L  	c #BECAE4",
"P  	c #DCD6DB",
"I  	c #F2F6FC",
"U  	c #F4B6B4",
"Y  	c #E0E6F8",
"T  	c #A2B2D1",
"R  	c #5E7694",
"E  	c #B2C2E0",
"W  	c #BEB6BC",
"Q  	c #B7BEDA",
"!  	c #F3EAEC",
"~  	c #C2CEEC",
"^  	c #E6E2E4",
"/  	c #4E7AB4",
"(  	c #B5AEB4",
")  	c #A6A6B4",
"_  	c #5E6E8C",
"`  	c #BAC2D4",
"'  	c #97AED7",
"]  	c #AEBAD8",
"[  	c #A2AEC8",
"{  	c #9F9A9E",
"}  	c #22222C",
"|  	c #060610",
" . 	c #394E74",
"...	c #D6A6B4",
"X..	c #DBDEEF",
"o..	c #8B868B",
"O..	c black",
"+..	c #BABAC4",
"@..	c #CDCAD1",
"#..	c #F6AEAC",
"$..	c #989298",
"%..	c #3A3A44",
"&..	c #706E6F",
"*..	c #FECCCC",
"=..	c #CAC2D0",
"-..	c #474646",
";..	c #676265",
":..	c #5A7AA4",
">..	c #A6BAD8",
",..	c #FEE2E4",
"<..	c #585658",
"1..	c #5E626C",
"2..	c #404E68",
"3..	c #FEDADC",
"4..	c #FAD6D4",
"5..	c #DACEDC",
"6..	c #0C0E10",
"7..	c #1E1B1C",
"8..	c #E8DEE0",
"9..	c #323E5C",
"0..	c #DCDEE4",
"q..	c #D6D2E4",
"w..	c #797A84",
"e..	c #84828C",
"r..	c #393634",
"t..	c #5E5E64",
"y..	c #564A44",
"u..	c #C5D2EC",
"i..	c #B2BACC",
"p..	c #F1D9DC",
"a..	c #506C9C",
"s..	c #625A64",
"d..	c #8E8E9E",
"f..	c #9A9CA0",
"g..	c #394664",
"h..	c #31323C",
"j..	c #3F3E3D",
"k..	c #6E676F",
"l..	c #FDECEC",
"z..	c #302E2E",
"x..	c #CEAEBC",
"c..	c #3E464C",
"v..	c #7C767A",
"b..	c #2A272A",
"n..	c #141E2C",
"m..	c #D69EA4",
"M..	c #4A5A74",
"N..	c #29364C",
"B..	c #928C92",
"V..	c #A0A2A8",
"C..	c #A6767C",
"Z..	c #8E8E8C",
"A..	c #363236",
"S..	c #929EC3",
"D..	c #262838",
"F..	c #635E5F",
"G..	c #ABAEC1",
"H..	c #566294",
"J..	c #765A64",
"K..	c #ACAAAE",
"L..	c #0E0E24",
"P..	c #828694",
"I..	c #555258",
"U..	c #3F5278",
"Y..	c #868AB4",
"T..	c #627AAC",
"R..	c #DAC4B0",
"E..	c #42322C",
"W..	c #766E74",
"Q..	c #5A5A5C",
"!..	c #8E829C",
"~..	c #666A80",
"^..	c #DABABC",
"/..	c #9EAAC8",
"(..	c #EACECC",
")..	c #72726F",
"_..	c #A4AAB8",
"`..	c #8A7E8C",
"'..	c #040A10",
"]..	c #363E54",
"[..	c #747688",
"{..	c #CEBCC0",
"}..	c #F2CECC",
"|..	c #D2CABC",
" X.	c #D6BEAC",
".X.	c #22263C",
"XXX	c #B6CAEC",
"oXX	c #AEAEB2",
"OXX	c #DEBA94",
"+XX	c #2A2E44",
"@XX	c #A29EA4",
"#XX	c #B6A68C",
"$XX	c #9A9AAC",
"%XX	c #16162C",
"&XX	c #161418",
"*XX	c #9AA2AC",
"=XX	c #E6C6AC",
"-XX	c #6E7A9C",
";XX	c #3E3E54",
":XX	c #424A5C",
"                                                                                                            ",
"                                          .  X  o                                                           ",
"                                    O  +  @  #  $  o  %  #                                                  ",
"                                    &  *  =  -  ;  :  >  ,  <  1                                            ",
"                                 2  3  4  -  5  5  6  7  8  9  1  ;                                         ",
"                           o  $  0  q  w  e  7  7  e  r  .  t  y  u                                         ",
"                  i  3  3  9  p  3  a  6  7  s  d  f  g  7  7  7  h  j  +                                   ",
"            o  k  a  l  7  z  x  c  #  3  a  .  u  3  v  7  l  b  n  m  M  2                                ",
"         #  $  s  7  7  N  B  =  V  l  C  Z  @  c  A  S  a  D  7  7  7  w  F  2  G                          ",
"         H  J  7  7  K  L  :  P  I  7  7  3  U  V  q  P  7  7  7  7  Y  q  T  ;  P  R                       ",
"      s  p  E  7  L  W  Q  !  7  w  ~  E  ;  5  ^  6  7  7  7  5  Q  9  1  z  7  7  /                       ",
"   (  )  _  _  6  a  K  7  Z  T  <  `  ~  K  P  '  F  Y  !  ]  +  1  t  y  7  7  7  [  +                    ",
"   {  }  |   . I  a  7  I  p  Q  5  7  7  F  +  ...@  n  n  2  X..y  7  7  7  7  7  s  3                    ",
"   o..O..O.. . +..(  @..Z  d  7  7  7  7  3  #..U  W  M  I  6  7  7  e  P  7  7  7  7  3                    ",
"   $..%..&.. . 3  7  u  7  W  m  7  7  G  3  W  *..7  7  7  7  7  =..7  7  7  7  7  7  3                    ",
"   o..-..5  ;..O..P  :..7  t  >..7  d  +..7  7  7  7  7  *..,..l  6  7  g  5  7  7  7  (  $                 ",
"   $..O..<..m  1..2..n  7  X..]  7  d  I  7  7  3..4..m  ^  5..5  5..^  ^  7  w  7  7  =..a                 ",
"   o..6..7..<..8..1..9..o..7  +..0..G  P  7  6  4..m  g  g  ^  m  7  m  I  w  q..6  7  6  u  )  w..j        ",
"   e..r..t..O..y..e  t..6..Y  v  u..i..;  7  7  7  g  g  g  ^  m  7  P  p..p..6  7  7  P  a..s..A  2..d..   ",
"   f..g..t..h..O..j..7  k.. . ,  t  7  :..7  7  l..4..g  ^  P  5  5..e  7  6  7  ^  '  z..x..P  l..r..o..   ",
"      +  c..v..b..O..j..7  ;..9..T  7  a  7  7  7  8..g  5..K  c  6  7  7  !  :  n..m..^  6  v..M..n..o..   ",
"         %  N..B..7..O..%..6  k..O..f  G  s  7  7  7  P  N  7  7  7  I  V..N..C..l..7  Z..n..;  W  A..o..   ",
"            S..D..{  7..O..-..e  F.. . G..a  7  7  ,..,..7  7  I  d..H..J..y  I  K..L..P..<  +..f  r..o..   ",
"               p  D..B..b..O..I..g  F..U..H..7  7  7  7  Z  Z..Y..y..,..8..i  %..T..+..s  s  (  R..E..o..   ",
"                  S..N..W..z..O..Q..g  ;..O..`  7  X..Z..!..;..3..m  X  ~..k..K..^..P  ;..R..(  s  z..o..   ",
"                     H  g..k..A..O..<..Z  ;..2..O  e../..(..8..)..w..1.._..-  p..l..@..|  s  W  f  r..`..   ",
"                        #  2..;..A..O..-..6  k..'..]..8  k..S  [..)  {..}..6  C  k..}  |  |.. X..  .X.e..   ",
"                           H  g..&..b..O..%..7  ;..F..i..w..G..(  +..+..7  H  L..O..O..T..W  v..6..I..      ",
"                              ;  h..Z..7..O..-..s  &..XXXh  oXXW  OXX@..m  +XXO..H..+..@XXO..D..Z..         ",
"                                 F  D..{  7..O..O..)..>..#XXs  oXXW  f  $XXU.._..{  '..%XXX                 ",
"                                    ;  .X.Z..z..&XX)..v  _..)  R..oXXW  )  o..r..&XXk  W                    ",
"                                       p  N..o..v..)..`  *XX+..=XXoXXk..-..D..-XXK..                        ",
"                                          +  9..b..&..L  _..<  Q..;XX%..&..)                                ",
"                                             2  -..)..u..:XXA..-..w..O  )                                   ",
"                                                k..|  n..]..v..X  i                                         ",
"                                                   B..o..d..@                                               "};
