/* XPM */
static const char * Earth_xpm[] = {
"32 32 251 2",
"  	c None",
". 	c #020214",
"+ 	c #5A809C",
"@ 	c #314259",
"# 	c #3D6298",
"$ 	c #AEBABC",
"% 	c #929EA4",
"& 	c #16223C",
"* 	c #626270",
"= 	c #84828F",
"- 	c #46465C",
"; 	c #213249",
"> 	c #2E5284",
", 	c #5E728C",
"' 	c #8692AC",
") 	c #303648",
"! 	c #AB9EA1",
"~ 	c #45729C",
"{ 	c #374259",
"] 	c #0D1221",
"^ 	c #7A8E9C",
"/ 	c #D6DEEC",
"( 	c #546279",
"_ 	c #727E9C",
": 	c #243A52",
"< 	c #747290",
"[ 	c #B2AEAF",
"} 	c #98929B",
"| 	c #D0CED2",
"1 	c #495672",
"2 	c #394A67",
"3 	c #606A74",
"4 	c #828A94",
"5 	c #121A2C",
"6 	c #6B7289",
"7 	c #738694",
"8 	c #9AAEC4",
"9 	c #283248",
"0 	c #345A8C",
"a 	c #416A9F",
"b 	c #2F3E53",
"c 	c #222A40",
"d 	c #4E6A8C",
"e 	c #565A74",
"f 	c #A69EA1",
"g 	c #B8AEB7",
"h 	c #6C6A74",
"i 	c #8E8A94",
"j 	c #2A4A74",
"k 	c #060A14",
"l 	c #9192A4",
"m 	c #D6CECC",
"n 	c #485E78",
"o 	c #404256",
"p 	c #A2969C",
"q 	c #3C5278",
"r 	c #647A9A",
"s 	c #ADA6A8",
"t 	c #55729B",
"u 	c #253A5E",
"v 	c #606A88",
"w 	c #667F91",
"x 	c #C2BEC4",
"y 	c #161224",
"z 	c #999A9A",
"A 	c #404A60",
"B 	c #283256",
"C 	c #294679",
"D 	c #767A84",
"E 	c #4E566C",
"F 	c #4A6A90",
"G 	c #52628C",
"H 	c #7E7E94",
"I 	c #848AA4",
"J 	c #1A1A28",
"K 	c #7E8997",
"L 	c #272E40",
"M 	c #3E528C",
"N 	c #0A060C",
"O 	c #2F3A60",
"P 	c #121222",
"Q 	c #EEEAF0",
"R 	c #B9B6BC",
"S 	c #050612",
"T 	c #62869C",
"U 	c #484E62",
"V 	c #607699",
"W 	c #36426C",
"X 	c #CCD0E4",
"Y 	c #485A85",
"Z 	c #373E51",
"` 	c #A0A6A8",
" .	c #5A7EAC",
"..	c #98A6B8",
"+.	c #22325C",
"@.	c #9692A4",
"#.	c #6C7A96",
"$.	c #BEB2BC",
"%.	c #919AAA",
"&.	c #B3A7AC",
"*.	c #537AA1",
"=.	c #666D87",
"-.	c #4A5271",
";.	c #426294",
">.	c #1E2234",
",.	c #8A9AB0",
"'.	c #303A4E",
").	c #E2DADC",
"!.	c #7182A7",
"~.	c #B2B6C4",
"{.	c #7286A4",
"].	c #5A6A8E",
"^.	c #B7B2BC",
"/.	c #2A3D5D",
"(.	c #C7C6D1",
"_.	c #283658",
":.	c #9AA2A4",
"<.	c #5E6688",
"[.	c #858691",
"}.	c #0E1628",
"|.	c #5A6371",
"1.	c #2A3B52",
"2.	c #D0D2D1",
"3.	c #495A77",
"4.	c #364A77",
"5.	c #8A8C96",
"6.	c #0E1E44",
"7.	c #BABACA",
"8.	c #7E96BC",
"9.	c #A2B2CC",
"0.	c #DAD6DC",
"a.	c #E8E2EA",
"b.	c #6A8694",
"c.	c #F2F2FC",
"d.	c #BEC2CC",
"e.	c #7B7A89",
"f.	c #060C28",
"g.	c #4B729C",
"h.	c #3A5A90",
"i.	c #576689",
"j.	c #3E456A",
"k.	c #A5AABC",
"l.	c #768EB4",
"m.	c #ABB0C4",
"n.	c #9EA0AE",
"o.	c #6E6E88",
"p.	c #928EA0",
"q.	c #31467A",
"r.	c #66727C",
"s.	c #8A94A8",
"t.	c #666A78",
"u.	c #0E0A0C",
"v.	c #425373",
"w.	c #5A749C",
"x.	c #324264",
"y.	c #90A0BC",
"z.	c #AEA2B0",
"A.	c #AEA6B4",
"B.	c #3E4A74",
"C.	c #466A9C",
"D.	c #979EB7",
"E.	c #727A98",
"F.	c #A6A6B8",
"G.	c #667EA4",
"H.	c #7E8AAC",
"I.	c #628097",
"J.	c #666670",
"K.	c #36558C",
"L.	c #DEDAE4",
"M.	c #9E9294",
"N.	c #5E5E6C",
"O.	c #968E90",
"P.	c #324B79",
"Q.	c #8A8EA4",
"R.	c #4E4E5C",
"S.	c #667498",
"T.	c #D2D2DC",
"U.	c #627EAC",
"V.	c #7E92AC",
"W.	c #B2AEBC",
"X.	c #A69EAC",
"Y.	c #3E669F",
"Z.	c #1A263C",
"`.	c #213653",
" +	c #8296A4",
".+	c #6F8296",
"++	c #74768C",
"@+	c #626E7C",
"#+	c #848E90",
"$+	c #6A768A",
"%+	c #748A98",
"&+	c #365E8C",
"*+	c #212E45",
"=+	c #506E98",
"-+	c #9296A4",
";+	c #D7D2D9",
">+	c #3E465C",
",+	c #55769F",
"'+	c #606E90",
")+	c #C3C2C9",
"!+	c #525A78",
"~+	c #1B1E30",
"{+	c #E4DEE4",
"]+	c #586E8C",
"^+	c #BEBEC4",
"/+	c #4E76A4",
"(+	c #161A2A",
"_+	c #4E5E80",
":+	c #CEC6CC",
"<+	c #121624",
"[+	c #66768C",
"}+	c #666E7C",
"|+	c #303E5E",
"1+	c #989AAC",
"2+	c #262E50",
"3+	c #5E6674",
"4+	c #AEA2A4",
"5+	c #38465B",
"6+	c #56667C",
"7+	c #9A969C",
"8+	c #28364C",
"9+	c #416E9F",
"0+	c #2E4E7C",
"a+	c #0A0E19",
"b+	c #3E567C",
"c+	c #AEAAAC",
"d+	c #263E5C",
"e+	c #424E62",
"f+	c #4E6684",
"g+	c #7C829A",
"h+	c #858EA7",
"i+	c #3C5687",
"j+	c #4A5264",
"k+	c #37466A",
"l+	c #5C82A8",
"m+	c #21365F",
"n+	c #9996A5",
"o+	c #43669A",
"p+	c #1F2632",
"q+	c #748AA8",
"r+	c #374E7C",
"s+	c #3C5E8C",
"t+	c #314666",
"u+	c #AAAABC",
"v+	c #424E70",
"w+	c #476E9E",
"x+	c #62768C",
"y+	c #5A5E74",
"z+	c #918E94",
"A+	c #A69A9C",
"B+	c #181624",
"                        3 ( f+i.'+=.y+R.                        ",
"                  |.j+$+r 6+b+q -.E.}+R.R.b >.                  ",
"              @ 5+'.@ 3.n [+-.+.O $+h+[.* '.<+. .               ",
"            5+`.`.1 .+E A q+V v+].6 g+%.D >+9 p+p+]             ",
"          e+9 ; q 8.8 K -+9.y._ h+-+l -+e.3 { '.) c B+          ",
"        1.: +.m+n l..+3 [.k.m.m.k.n.n+l t.J.U 1.) '.L <+        ",
"      j+9 B t+k+q f+$+= c+7.(.~.A.f M.} i #+j+*+p+{ 5+L 5       ",
"      ) _.|+x.k+-.#.F.m L.^+(.R A.&.! M.} ++Z { 5+5+e+L k       ",
"    e+9 1.3.3.'+n.X L.Q ).(.;+^.! 4+! A+M.* o 5+e+*+v.3.~+S     ",
"  3 b 2 -.].].D./ c.Q a.m 0.T.W.g &.! f n.h+[+5+: ; b '.) (+a+  ",
"  |.; '+,.,.h+m.a.Q a.a.| ;+T.[ g g ! z+1+H.1 B *+8+8+1.'.L 5   ",
"  }+'.( 8.' $ (.{+a.a.a.;+| 0.^.s c+7+l s.6+1.`.: `.`.b c J ]   ",
"}+4 3 e+$+!.m.X ;+m | 2.2.^+d.^.c+[ ` ` ..( ; u : d+: : 1.L }.S ",
"D #+% |.E ,.7.7.| ;+m 2.| (.m R c+s ` z %.!+B 8+: /.: '.*+'.<+. ",
"D i ` -+y+v ' D.m.~.(.^+x ^.$.g &.s A+z+-+++o B : : *+c ~+) (+N ",
"h [.%.n.1+-.o E @+r.$ d.)+^.g g 4+p O.z+} p.< W `.`.& c 9 9 B+u.",
"* = z n.X.- 2+9 '.8+U D u+F.z.z.! M.M.7+[.H ++i.d =+2 5 5 (+] u.",
"J.i z n+-+- L ) b : `.b g+1+m.F.@.i 5.5.g+H #.].w+/+F ; Z.(+P S ",
"N.i [.i z+o *+; : /.1.8+5+{ '+h+%.% K 7 .+.+V =+~ w+F b+Z.S S . ",
"N.o.e.= z+t.'.; : `./.: : *+9 A $+^ 7 %+b.I.t F a 9+r+s+C f.. . ",
"  < = g+Q.K n b 8+`.`.: : _.9 8+1 b.w I.I. .,+9+Y.o+M # 0 }..   ",
"  6 v E.g+ +K ]+@ u _.`.`.`.O 5+, w I.T + *./+o+0+r+0+0 j k .   ",
"  3+j., H.V.7 {._+_.O m+m+: |+]..+w w + /+9+# h.i+i+P.`.6.. .   ",
"    v+3.r x+r {.v+B _._.) B.].r S., w.,+=+o+# q.r+u ] k . .     ",
"      1 _+].r q+q _._._.j.'+!.U.w.,+,+g.o+P.K.q.4.; ] . .       ",
"      i.|+Y =+U.i++._.t+f+=+*.w+g./+9+;.# K.s+t+p+5 k . .       ",
"        Y Y Y ]+r++.W =+l+ . .a C.C.h.i+q.q.k+c >.] S .         ",
"          Y |+G Y |+P.~ ~ 9+w+s+# ;.P.q i+q 2+}.y N .           ",
"            ( G B.-.4.a 9+a a h.K.P.0+|+_.~+5 ] B+P             ",
"                -.Y u 0+> C j C C m+_._.B B+k k                 ",
"                  o.j.u u +.+.m+m+B _.c 5 P ~+                  ",
"                        t+B W O |+|+8+b                         "};
