/* XPM */
static const char * exitt_xpm[] = {
"32 32 42 1",
" 	c None",
".	c #62A4E0",
"X	c #4996E8",
"o	c #5A7AAC",
"O	c #507AB8",
"+	c #427EC1",
"@	c #468AD7",
"#	c #4A91E1",
"$	c #4686D0",
"%	c #458EDB",
"&	c #5A8AC8",
"*	c #5692DC",
"=	c #539AE9",
"-	c #458EE4",
";	c #4A9AEB",
":	c #4692E1",
">	c #4186CC",
",	c #5A82B4",
"<	c #5A8ED4",
"1	c #3C7ABA",
"2	c #3972B1",
"3	c #366EA3",
"4	c #336A9C",
"5	c #36629A",
"6	c #3972A4",
"7	c #316296",
"8	c #2A567C",
"9	c #244268",
"0	c #203A58",
"q	c #264A6F",
"w	c #3E7EC1",
"e	c #528AD4",
"r	c #54A4F4",
"t	c #365B81",
"y	c #182E46",
"u	c #161212",
"i	c #0E0E0D",
"p	c #1E2C38",
"a	c #2D5684",
"s	c #1A262C",
"d	c #152231",
"f	c #305E92",
"                                ",
"                                ",
"                                ",
"                                ",
"                                ",
"                                ",
"                                ",
"                                ",
"                                ",
"          .X..X.XX  X           ",
"         .oO+@@X#$%XX.X         ",
"        .&*=#-XX;;X;X:>..       ",
"      .,*XX%$:;@-$#;#X:%>X      ",
"     X.=;X@-:@>$>>>>@%XXX..     ",
"    .<@:$%#$>>111221>>%--X.X    ",
"   X&;;X@%%>>12345546>>:-;#.    ",
"   XX;:;:>>>2478900q76w@@;X..   ",
"  .er->@%%>125t9yuipq3ww$-;$X   ",
"  .*;;@@%@>167a9ysd0t3w>$XXw.   ",
"  X*%-@>::>114588qqf31>%#X:..   ",
"  X#::X@@@ww226454562w@::;%.    ",
"  X.%-@:@%@@>w1661w>>%%X;@XX    ",
"  ...-;%%%:@>>>>>w>>%X;;X...    ",
"   ..$$:r..@@%:@@%::%:X$XX      ",
"   .XX>..XX.;:%XX::%%;X..       ",
"     X..XXX.;;%X;;;X..XX        ",
"       .X.XX.@>X..X.            ",
"          .XXXXX.. X            ",
"                                ",
"                                ",
"                                ",
"                                "};
