/* XPM */
static const char * Exit_xpm[] = {
"32 32 15 1",
" 	c None",
".	c #1A1A1C",
"X	c #060E0C",
"o	c #060A0C",
"O	c #060604",
"+	c #020204",
"@	c #121614",
"#	c #2A2A2C",
"$	c #121214",
"%	c #161614",
"&	c #222224",
"*	c #464644",
"=	c #262624",
"-	c #0A0A0C",
";	c #363634",
"                                ",
"                                ",
"                                ",
"                                ",
"                                ",
"                                ",
"                                ",
"                                ",
"                     ...        ",
" XooooOOo            +++        ",
" ++++++++                  ...  ",
" +++                       @..  ",
" +++      #++.  ++   +++  ..... ",
" +++       $+O .+.   +++  ....O ",
" +++++++   .++++.    +++   %..  ",
" +++++++    ++++     +++   %..  ",
" +++        .+++     +++   %..  ",
" +++        &+++*    +++   %..  ",
" +++       &+=++O.   +++   %..  ",
" ++++++++. -+ ;+++   +++   .... ",
" .&&&&&&&.%&   .&&.  .&&    ..& ",
"                                ",
"                                ",
"                                ",
"                                ",
"                                ",
"                                ",
"                                ",
"                                ",
"                                ",
"                                ",
"                                "};
