/* XPM */
static const char * Quasar_xpm[] = {
"32 32 146 2",
"  	c None",
". 	c #FEFE34",
"X 	c #927A4C",
"o 	c #FEEE54",
"O 	c #623E0C",
"+ 	c #FEFE3C",
"@ 	c #522A04",
"# 	c #56320C",
"$ 	c #7A5624",
"% 	c #F2DA5C",
"& 	c #FEFE44",
"* 	c #5A3614",
"= 	c #462A0C",
"- 	c #FEE634",
"; 	c #FEFE4C",
": 	c #623E1C",
"> 	c #FEDE4C",
", 	c #FEFE54",
"< 	c #624224",
"1 	c #5E3E1C",
"2 	c #FEE234",
"3 	c #FAE244",
"4 	c #624624",
"5 	c #624214",
"6 	c #52321C",
"7 	c #FED624",
"8 	c #5E462C",
"9 	c #66461C",
"0 	c #623A0C",
"q 	c #EED25C",
"w 	c #FEE23C",
"e 	c #FADE4C",
"r 	c #62421C",
"t 	c #664A24",
"y 	c #D6C65C",
"u 	c #9E7E34",
"i 	c #F6CE2C",
"p 	c #FADA44",
"a 	c #5E4224",
"s 	c #6A4E24",
"d 	c #865E2C",
"f 	c #6E4E24",
"g 	c #766A5C",
"h 	c #FEDA34",
"j 	c #F6D63C",
"k 	c #EECE44",
"l 	c #865A1C",
"z 	c #6E4614",
"x 	c #5A4224",
"c 	c #FEFA34",
"v 	c #FEF63C",
"b 	c #FEF644",
"n 	c #FEF24C",
"m 	c #6A4A24",
"M 	c #765224",
"N 	c #C6AE44",
"B 	c #523614",
"V 	c #96722C",
"C 	c #E2BE44",
"Z 	c #CAA634",
"A 	c #CA9A04",
"S 	c #C6A63C",
"D 	c #C6A23C",
"F 	c #C2A23C",
"G 	c #B69634",
"H 	c #6E4A24",
"J 	c #725224",
"K 	c #765624",
"L 	c #6E522C",
"P 	c #664E2C",
"I 	c #56361C",
"U 	c #8E6224",
"Y 	c #562E04",
"T 	c #6A3A04",
"R 	c #724214",
"E 	c #72461C",
"W 	c #764A14",
"Q 	c #724624",
"! 	c #663E24",
"~ 	c #E6B634",
"^ 	c #863E14",
"/ 	c #AE4E04",
"( 	c #52361C",
") 	c #7E4E0C",
"_ 	c #7E5614",
"` 	c #826224",
"' 	c #D6AA2C",
"] 	c #F6CE34",
"[ 	c #B24A04",
"{ 	c #EEBA14",
"} 	c #FEFE6C",
"| 	c #563604",
" .	c #DEB234",
"..	c #EABE3C",
"X.	c #A25A14",
"o.	c #96460C",
"O.	c #6E2204",
"+.	c #C68E14",
"@.	c #4E2E1C",
"#.	c #5A3A14",
"$.	c #CEAE54",
"%.	c #E2AE34",
"&.	c #D2A634",
"*.	c #E6B63C",
"=.	c #9A3A04",
"-.	c #6A2E04",
";.	c #CA9614",
":.	c #F6C62C",
">.	c #FEFA54",
",.	c #CE961C",
"<.	c #CE9A2C",
"1.	c #8E4204",
"2.	c #664624",
"3.	c #B69A3C",
"4.	c #E2AE3C",
"5.	c #7E4E14",
"6.	c #AA8A3C",
"7.	c #D2B23C",
"8.	c #C6A24C",
"9.	c #C69624",
"0.	c #DEAA34",
"q.	c #5E320C",
"w.	c #D29E34",
"e.	c #563204",
"r.	c #DAAA34",
"t.	c #9A6A14",
"y.	c #D6A22C",
"u.	c #DAA634",
"i.	c #5A3E24",
"p.	c #6E562C",
"a.	c #C28A14",
"s.	c #5E422C",
"d.	c #CAA24C",
"f.	c #BE964C",
"g.	c #BE8614",
"h.	c #CA9634",
"j.	c #CE8A14",
"k.	c #BE8214",
"l.	c #C28E2C",
"z.	c #C68614",
"x.	c #BE923C",
"c.	c #BA821C",
"v.	c #422204",
"b.	c #B27604",
"n.	c #9E5E04",
"m.	c #966A1C",
"                                                                ",
"                        . X                                     ",
"                        o O                                     ",
"                        + @                                     ",
"                      . . # $                                   ",
"                      % & * =                                   ",
"                      - ; : @ $                                 ",
"                    > - , < # $                                 ",
"                    % - ; < 1 @                                 ",
"                    2 3 , 4 5 6                                 ",
"                  7 2 > , 8 9 0 $                               ",
"                7 q w e ; r t 4 =       y u                     ",
"              7 i i p e , a t s d f $   o g                     ",
"          7 h 7 j k k , , a 4 d d l z 9 , x                     ",
"      7 c v b n o ; , , , m M l d l l r N B V                   ",
"  C Z A Z S S S S D F G C H J K L L P I U 6 Y Y V               ",
"      U z T R E W Q ! H ~ @ @ @ @ 8 ^ / v ( P                   ",
"          U l ) _ $ ` ' ] 4 @ @ t ^ [ { } 6 | V                 ",
"              U M ) '  ...4 @ X.o.O.+.c , @.#.V V               ",
"                  $.%.&.*.4 8 =.-.;.:.>., = x d ` V             ",
"                  %.,.<.%.4 x 1.7 ; , , } 2.d l d ` 9 V         ",
"                  3.,.<.4.4 x 5.3.6.u V 7.H m L m 5 Y #.$       ",
"                    8.9.0.4 #.-.9 q.6 s w.x @ a e.m $           ",
"                    3.+.r.t Y $ V s t.y.u.i.@ p.$               ",
"                    3.a.w.s.@       d.9.w.i.e.$                 ",
"                      f.,.a 4       A g.h.B r                   ",
"                      3.j.e.$         k.l.= $                   ",
"                        z.@           x.c.v.$                   ",
"                        x.O           A b.(                     ",
"                        3.$           Z n.$                     ",
"                                        m.                      ",
"                                                                "};
