/* XPM */
static const char * Settings_xpm[] = {
"32 32 145 2",
"  	c None",
". 	c #000000",
"+ 	c #C0C0C0",
"@ 	c #808080",
"# 	c #FFFFFF",
"$ 	c #DFDFDF",
"% 	c #CECECE",
"& 	c #D3D3D3",
"* 	c #9C9C9D",
"= 	c #A7A7B8",
"- 	c #6C6C6C",
"; 	c #B7B7B7",
"> 	c #999EA1",
", 	c #A5A5A5",
"' 	c #9B9B9C",
") 	c #B0B0B1",
"! 	c #747475",
"~ 	c #AEAEAE",
"{ 	c #787879",
"] 	c #8B8B8B",
"^ 	c #999A9D",
"/ 	c #D1DDF1",
"( 	c #BABCCE",
"_ 	c #B3B3B3",
": 	c #AFAFB0",
"< 	c #99999D",
"[ 	c #909093",
"} 	c #9A9A9D",
"| 	c #6E6E6F",
"1 	c #F5F5F5",
"2 	c #E6E6E6",
"3 	c #9C9C9E",
"4 	c #9E9E9F",
"5 	c #FCFCFC",
"6 	c #E1E1E1",
"7 	c #E3E3E3",
"8 	c #B1B1B3",
"9 	c #BFBFBF",
"0 	c #9E9EA0",
"a 	c #9F9FA3",
"b 	c #8D8D90",
"c 	c #ACACAC",
"d 	c #878787",
"e 	c #919191",
"f 	c #999999",
"g 	c #979798",
"h 	c #B4B4B5",
"i 	c #8E8E8E",
"j 	c #949494",
"k 	c #A7A7A7",
"l 	c #7B7B7B",
"m 	c #939395",
"n 	c #9F9FA2",
"o 	c #A5A5A7",
"p 	c #7F7F81",
"q 	c #676768",
"r 	c #9C9CA0",
"s 	c #97979A",
"t 	c #767676",
"u 	c #8A8A8A",
"v 	c #BEBEBE",
"w 	c #B5B5B5",
"x 	c #A1A1A4",
"y 	c #9D9DA1",
"z 	c #9C9C9F",
"A 	c #B8B8B9",
"B 	c #A4A4A4",
"C 	c #737373",
"D 	c #898989",
"E 	c #909091",
"F 	c #838385",
"G 	c #AAAAAA",
"H 	c #5E5E5E",
"I 	c #929294",
"J 	c #9B9B9E",
"K 	c #888888",
"L 	c #828283",
"M 	c #A4A4A6",
"N 	c #B2B2B4",
"O 	c #A8A8AA",
"P 	c #A0A0A4",
"Q 	c #9A9A9C",
"R 	c #E2E2E2",
"S 	c #828282",
"T 	c #777777",
"U 	c #838383",
"V 	c #A8A8A8",
"W 	c #5D5D5D",
"X 	c #929293",
"Y 	c #858587",
"Z 	c #78787A",
"` 	c #727272",
" .	c #949497",
"..	c #99999B",
"+.	c #8A8A8B",
"@.	c #808081",
"#.	c #D0D0D0",
"$.	c #676767",
"%.	c #6F6F6F",
"&.	c #696969",
"*.	c #707070",
"=.	c #838384",
"-.	c #98989A",
";.	c #8D8D8F",
">.	c #8F8F90",
",.	c #ABABAC",
"'.	c #89898A",
").	c #666666",
"!.	c #848486",
"~.	c #939393",
"{.	c #A1A1A3",
"].	c #656565",
"^.	c #595959",
"/.	c #606060",
"(.	c #6B6B6B",
"_.	c #757575",
":.	c #69696A",
"<.	c #747474",
"[.	c #4E4E4E",
"}.	c #7A7A7A",
"|.	c #8B8B8D",
"1.	c #8C8C8C",
"2.	c #9A9A9A",
"3.	c #A0A0A0",
"4.	c #7F7F7F",
"5.	c #6A6A6A",
"6.	c #5F5F5F",
"7.	c #717171",
"8.	c #ABABAB",
"9.	c #7A7A7B",
"0.	c #636363",
"a.	c #5B5B5B",
"b.	c #848484",
"c.	c #5C5C5C",
"d.	c #8D8D8D",
"e.	c #AEAEAF",
"f.	c #626262",
"g.	c #646464",
"h.	c #9E9E9E",
"i.	c #CACACA",
"j.	c #9F9FA0",
"k.	c #868686",
"l.	c #ECECEC",
"m.	c #9F9F9F",
"n.	c #00FF00",
"  . . . . . . . . . . . . . . . . . . . . . . . . . . . . . .   ",
". + + + + + + + + + + + + + + + + + + + + + + + + + + + + + + . ",
". + @ @ @ @ @ @ @ @ @ @ @ @ @ @ @ @ @ @ @ @ @ @ @ @ @ @ @ @ @ . ",
". + @ @ @ @ @ @ @ @ @ @ @ @ @ @ @ @ @ @ @ @ @ @ @ @ @ @ @ @ @ . ",
". + @ @ . . . . . . . . . . . . . . . . . . . . . . . . @ @ @ . ",
". + @ @ . # # # # # # # # # # # # # # # # # # # # # # + @ @ @ . ",
". + @ @ . # # # # # $ % & # # # # # # # # # # # # # # + @ @ @ . ",
". + @ @ . # # # # # * = - # # # # # # # # # # # # # # + @ @ @ . ",
". + @ @ . # # ; > , ' ) ! ~ { ] # # # # # # # # # # # + @ @ @ . ",
". + @ @ . # # ^ / ( _ : < [ } | 1 2 # 3 4 , 5 6 5 # # + @ @ @ . ",
". + @ @ . # # 7 8 9 : 0 a a b c d e f g h i j k k # # + @ @ @ . ",
". + @ @ . # l m n o p - q r s t u v w : x y z A B # # + @ @ @ . ",
". + @ @ . # C D E F G # H I J K L M N O P P Q P R # # + @ @ @ . ",
". + @ @ . # @ S l T U V W s X Y Q 3 } Z t `  ...+.@.# + @ @ @ . ",
". + @ @ . # # #.$.%.&.*.=.-.;.>.,.'.@ ).# k !.~.{.M # + @ @ @ . ",
". + @ @ . # # - ].^./.(._.).C ].:.(.<.[.d }.|.1.2.3.# + @ @ @ . ",
". + @ @ . # # d &.% 4.5.6.6 7.8.e 9.0.0.a.l b.@ + # # + @ @ @ . ",
". + @ @ . # # # # # @ H c.# # # d.e.&.f.g.).g.h.] # # + @ @ @ . ",
". + @ @ . # # # # # # # # # # # i.j.# 7.K k.l.1.l.# # + @ @ @ . ",
". + @ @ . # # # # # # # # # # # # # # D d.m.# # # # # + @ @ @ . ",
". + @ @ . + + + + + + + + + + + + + + + + + + + + + + + @ @ @ . ",
". + @ @ @ @ @ @ @ @ @ @ @ @ @ @ @ @ @ @ @ @ @ @ @ @ @ @ @ @ @ . ",
". + @ @ @ @ @ @ @ @ @ @ @ @ @ @ @ @ @ @ @ n.@ @ . . . . @ @ @ . ",
". + @ @ @ @ @ @ @ @ @ @ @ @ @ @ @ @ @ @ @ n.@ @ . . . . @ @ @ . ",
". + @ @ @ @ @ @ @ @ @ @ @ @ @ @ @ @ @ @ @ @ @ @ @ @ @ @ @ @ @ . ",
"  . . . . . . . . . . . . . . . . . . . . . . . . . . . . . .   ",
"                  . . . . . . . . . . . . . .                   ",
"                  . @ @ @ @ @ @ @ @ @ @ @ @ .                   ",
"  . . . . . . . . . . . . . . . . . . . . . . . . . . . . . .   ",
". . + + + + + + + + + + + + + + + + + + + + + + + + + + + + . . ",
". @ @ @ @ @ @ @ @ @ @ @ @ @ @ @ @ @ @ @ @ @ @ @ @ @ @ @ @ @ @ . ",
". . . . . . . . . . . . . . . . . . . . . . . . . . . . . . . . "};
