/* XPM */
static const char * SrcStatusCandidate_xpm[] = {
"16 16 3 1",
" 	c None",
".	c blue",
"X	c LightBlue",
"      ...       ",
"      .X.       ",
"     ..X..      ",
"     .XXX.      ",
"    ..XXX..     ",
"  ...XXXXX...   ",
"...XXXXXXXXX... ",
".XXXXXXXXXXXXX. ",
"...XXXXXXXXX... ",
"  ...XXXXX...   ",
"    ..XXX..     ",
"     .XXX.      ",
"     ..X..      ",
"      .X.       ",
"      ...       ",
"                "};
